<svg width="254" height="125" viewBox="0 0 254 125" fill="none" xmlns="http://www.w3.org/2000/svg">
<path d="M253.329 1.92002e-06C253.696 -0.000922202 254 0.297904 254 0.666018V57.3171C254 57.6912 253.712 57.9922 253.339 57.9863C225.199 57.5384 162.35 70.1852 128.259 124.293C127.9 124.863 127.399 125 127 125C126.601 125 126.1 124.863 125.741 124.293C91.6505 70.1852 28.8009 57.5384 0.661025 57.9863C0.287905 57.9922 0.000158997 57.6912 0 57.3171V0.666018C0 0.297904 0.303644 -0.000922202 0.670765 1.92002e-06C67.3035 0.190316 112.362 28.6892 126.814 43.1458C126.938 43.2701 127 43.5024 127 43.5024C127 43.5024 127.062 43.2701 127.186 43.1458C141.638 28.6892 186.696 0.190316 253.329 1.92002e-06Z" fill="#1C48CD"/>
</svg>
